<?xml version="1.0" encoding="UTF-8" standalone="no"?>
<!-- Created with Inkscape (http://www.inkscape.org/) -->

<svg
   xmlns:dc="http://purl.org/dc/elements/1.1/"
   xmlns:cc="http://creativecommons.org/ns#"
   xmlns:rdf="http://www.w3.org/1999/02/22-rdf-syntax-ns#"
   xmlns:svg="http://www.w3.org/2000/svg"
   xmlns="http://www.w3.org/2000/svg"
   xmlns:sodipodi="http://sodipodi.sourceforge.net/DTD/sodipodi-0.dtd"
   xmlns:inkscape="http://www.inkscape.org/namespaces/inkscape"
   width="210mm"
   height="297mm"
   viewBox="0 0 210 297"
   version="1.1"
   id="svg8"
   inkscape:version="0.92.2 2405546, 2018-03-11"
   sodipodi:docname="dibujo.svg">
  <defs
     id="defs2">
    <filter
       id="bolt-inner-shadow">
      <feOffset
         id="feOffset3782"
         dy="0"
         dx="0" />
      <feGaussianBlur
         id="feGaussianBlur3784"
         result="offset-blur"
         stdDeviation="8" />
      <feComposite
         id="feComposite3786"
         result="inverse"
         in2="offset-blur"
         in="SourceGraphic"
         operator="out" />
      <feFlood
         id="feFlood3788"
         result="color"
         flood-opacity="1"
         flood-color="6B2C22" />
      <!-- Clip color inside shadow -->
      <feComposite
         id="feComposite3790"
         result="shadow"
         in2="inverse"
         in="color"
         operator="in" />
      <!-- Put shadow over original object -->
      <feComposite
         id="feComposite3792"
         in2="SourceGraphic"
         in="shadow"
         operator="over" />
    </filter>
  </defs>
  <sodipodi:namedview
     id="base"
     pagecolor="#ffffff"
     bordercolor="#666666"
     borderopacity="1.0"
     inkscape:pageopacity="0.0"
     inkscape:pageshadow="2"
     inkscape:zoom="0.98994949"
     inkscape:cx="503.26278"
     inkscape:cy="505.82471"
     inkscape:document-units="mm"
     inkscape:current-layer="layer1"
     showgrid="false"
     inkscape:snap-text-baseline="false"
     inkscape:window-width="1920"
     inkscape:window-height="1080"
     inkscape:window-x="0"
     inkscape:window-y="0"
     inkscape:window-maximized="1" />
  <metadata
     id="metadata5">
    <rdf:RDF>
      <cc:Work
         rdf:about="">
        <dc:format>image/svg+xml</dc:format>
        <dc:type
           rdf:resource="http://purl.org/dc/dcmitype/StillImage" />
        <dc:title></dc:title>
      </cc:Work>
    </rdf:RDF>
  </metadata>
  <g
     inkscape:label="Capa 1"
     inkscape:groupmode="layer"
     id="layer1">
    <path
       id="path3861"
       class="bolt loading"
       d="m 135.89349,85.014484 -60.760253,-9.907805 16.205516,54.029391 -23.104348,-0.20279 60.760265,67.84819 -16.2055,-54.0294 z m 0,57.940376"
       inkscape:connector-curvature="0"
       style="stroke-width:0.28970188" />
    <g
       aria-label="CronoLife"
       style="font-style:normal;font-weight:normal;font-size:17.84335899px;line-height:1.25;font-family:sans-serif;letter-spacing:0px;word-spacing:0px;fill:#000000;fill-opacity:1;stroke:none;stroke-width:0.44608396"
       id="text3875">
      <path
         d="m 37.146225,205.36077 c -2.356242,2.4335 -4.326215,3.36054 -7.068727,3.36054 -5.291888,0 -9.579477,-4.40347 -9.579477,-9.73398 0,-2.31762 0.88842,-4.78974 2.356243,-6.48932 1.738211,-2.04723 4.210334,-3.12879 7.107354,-3.12879 3.321915,0 5.562276,1.08156 7.493622,3.59231 h 5.90992 c -1.120181,-2.47212 -2.124481,-3.82407 -4.055827,-5.40777 -2.626631,-2.12448 -5.987173,-3.28329 -9.463596,-3.28329 -8.073027,0 -14.678231,6.6052 -14.678231,14.67823 0,8.26616 6.682458,14.87137 15.025873,14.87137 5.871292,0 10.931419,-3.24466 13.171781,-8.4593 z"
         style="font-style:normal;font-variant:normal;font-weight:600;font-stretch:normal;font-size:38.62692261px;font-family:'URW Gothic';-inkscape-font-specification:'URW Gothic, Semi-Bold';font-variant-ligatures:normal;font-variant-caps:normal;font-variant-numeric:normal;font-feature-settings:normal;text-align:start;writing-mode:lr-tb;text-anchor:start;stroke-width:0.44608396"
         id="path4278"
         inkscape:connector-curvature="0" />
      <path
         d="m 46.196393,213.31792 h 5.137381 v -11.8971 c -0.115881,-3.1674 1.50645,-4.94424 4.596604,-5.06012 v -4.94425 h -0.386269 c -2.201735,0 -3.283289,0.61803 -4.635231,2.58801 v -2.08586 h -4.712485 z"
         style="font-style:normal;font-variant:normal;font-weight:600;font-stretch:normal;font-size:38.62692261px;font-family:'URW Gothic';-inkscape-font-specification:'URW Gothic, Semi-Bold';font-variant-ligatures:normal;font-variant-caps:normal;font-variant-numeric:normal;font-feature-settings:normal;text-align:start;writing-mode:lr-tb;text-anchor:start;stroke-width:0.44608396"
         id="path4280"
         inkscape:connector-curvature="0" />
      <path
         d="m 68.205287,191.41645 c -6.218934,0 -11.317688,5.06013 -11.317688,11.20181 0,6.18031 5.098754,11.20181 11.356315,11.20181 6.218935,0 11.394942,-5.0215 11.394942,-11.0473 0,-6.37345 -4.982873,-11.35632 -11.433569,-11.35632 z m 0.03863,4.71249 c 3.437796,0 6.218935,2.89702 6.218935,6.48932 0,3.5923 -2.781139,6.48932 -6.180308,6.48932 -3.476423,0 -6.218934,-2.89702 -6.218934,-6.56657 0,-3.51505 2.781138,-6.41207 6.180307,-6.41207 z"
         style="font-style:normal;font-variant:normal;font-weight:600;font-stretch:normal;font-size:38.62692261px;font-family:'URW Gothic';-inkscape-font-specification:'URW Gothic, Semi-Bold';font-variant-ligatures:normal;font-variant-caps:normal;font-variant-numeric:normal;font-feature-settings:normal;text-align:start;writing-mode:lr-tb;text-anchor:start;stroke-width:0.44608396"
         id="path4282"
         inkscape:connector-curvature="0" />
      <path
         d="m 82.560022,213.31792 h 5.13738 v -10.08163 c 0,-2.85839 0.193135,-4.09445 0.849793,-5.13738 0.811165,-1.27469 2.12448,-1.96997 3.785438,-1.96997 1.351942,0 2.394869,0.46352 3.090154,1.35194 0.695284,0.92704 1.0043,2.51075 1.0043,5.36914 v 10.4679 h 5.137383 v -11.4722 c 0,-3.82406 -0.38627,-5.67816 -1.54508,-7.33911 -1.390569,-2.0086 -3.708184,-3.09016 -6.682457,-3.09016 -2.472123,0 -4.133081,0.69529 -6.0258,2.54938 v -2.04723 h -4.751111 z"
         style="font-style:normal;font-variant:normal;font-weight:600;font-stretch:normal;font-size:38.62692261px;font-family:'URW Gothic';-inkscape-font-specification:'URW Gothic, Semi-Bold';font-variant-ligatures:normal;font-variant-caps:normal;font-variant-numeric:normal;font-feature-settings:normal;text-align:start;writing-mode:lr-tb;text-anchor:start;stroke-width:0.44608396"
         id="path4284"
         inkscape:connector-curvature="0" />
      <path
         d="m 116.11173,191.41645 c -6.21894,0 -11.31769,5.06013 -11.31769,11.20181 0,6.18031 5.09875,11.20181 11.35631,11.20181 6.21894,0 11.39495,-5.0215 11.39495,-11.0473 0,-6.37345 -4.98288,-11.35632 -11.43357,-11.35632 z m 0.0386,4.71249 c 3.4378,0 6.21894,2.89702 6.21894,6.48932 0,3.5923 -2.78114,6.48932 -6.18031,6.48932 -3.47642,0 -6.21893,-2.89702 -6.21893,-6.56657 0,-3.51505 2.78114,-6.41207 6.1803,-6.41207 z"
         style="font-style:normal;font-variant:normal;font-weight:600;font-stretch:normal;font-size:38.62692261px;font-family:'URW Gothic';-inkscape-font-specification:'URW Gothic, Semi-Bold';font-variant-ligatures:normal;font-variant-caps:normal;font-variant-numeric:normal;font-feature-settings:normal;text-align:start;writing-mode:lr-tb;text-anchor:start;stroke-width:0.44608396"
         id="path4286"
         inkscape:connector-curvature="0" />
      <path
         d="m 131.00723,213.31792 h 14.02157 v -5.06013 h -8.72968 v -23.48517 h -5.29189 z"
         style="font-style:normal;font-variant:normal;font-weight:600;font-stretch:normal;font-size:38.62692261px;font-family:'URW Gothic';-inkscape-font-specification:'URW Gothic, Semi-Bold';font-variant-ligatures:normal;font-variant-caps:normal;font-variant-numeric:normal;font-feature-settings:normal;text-align:start;writing-mode:lr-tb;text-anchor:start;stroke-width:0.44608396"
         id="path4288"
         inkscape:connector-curvature="0" />
      <path
         d="m 147.36573,213.31792 h 5.13738 V 191.9186 h -5.13738 z m 0,-23.71693 h 5.13738 v -4.82837 h -5.13738 z"
         style="font-style:normal;font-variant:normal;font-weight:600;font-stretch:normal;font-size:38.62692261px;font-family:'URW Gothic';-inkscape-font-specification:'URW Gothic, Semi-Bold';font-variant-ligatures:normal;font-variant-caps:normal;font-variant-numeric:normal;font-feature-settings:normal;text-align:start;writing-mode:lr-tb;text-anchor:start;stroke-width:0.44608396"
         id="path4290"
         inkscape:connector-curvature="0" />
      <path
         d="m 156.79975,213.31792 h 5.13738 v -16.72546 h 2.89702 v -4.28759 h -2.89702 c 0.0386,-1.96997 0.69528,-2.588 2.74251,-2.588 h 0.46352 v -4.867 c -0.61803,-0.0773 -0.88841,-0.0773 -1.27468,-0.0773 -2.24037,0 -4.05583,0.81117 -5.36915,2.39487 -1.04292,1.23606 -1.42919,2.47212 -1.69958,5.13738 h -1.85409 v 4.28759 h 1.85409 z"
         style="font-style:normal;font-variant:normal;font-weight:600;font-stretch:normal;font-size:38.62692261px;font-family:'URW Gothic';-inkscape-font-specification:'URW Gothic, Semi-Bold';font-variant-ligatures:normal;font-variant-caps:normal;font-variant-numeric:normal;font-feature-settings:normal;text-align:start;writing-mode:lr-tb;text-anchor:start;stroke-width:0.44608396"
         id="path4292"
         inkscape:connector-curvature="0" />
      <path
         d="m 188.18715,204.89725 c 0.1545,-0.77254 0.19313,-1.23606 0.19313,-2.0086 0,-6.60521 -4.67386,-11.4722 -11.0473,-11.4722 -6.29619,0 -11.27906,4.98287 -11.27906,11.27906 0,6.25756 5.06013,11.12456 11.58808,11.12456 3.51505,0 6.25756,-1.27469 8.49792,-3.8627 0.81116,-1.0043 1.35194,-1.89271 1.69958,-2.97427 h -5.6009 c -1.31332,1.54508 -2.588,2.12448 -4.71248,2.12448 -3.05153,0 -5.29189,-1.62233 -5.90992,-4.21033 z m -16.72546,-4.51935 c 0.81116,-2.78114 2.89702,-4.24896 5.94854,-4.24896 3.16741,0 5.25327,1.50645 5.90992,4.24896 z"
         style="font-style:normal;font-variant:normal;font-weight:600;font-stretch:normal;font-size:38.62692261px;font-family:'URW Gothic';-inkscape-font-specification:'URW Gothic, Semi-Bold';font-variant-ligatures:normal;font-variant-caps:normal;font-variant-numeric:normal;font-feature-settings:normal;text-align:start;writing-mode:lr-tb;text-anchor:start;stroke-width:0.44608396"
         id="path4294"
         inkscape:connector-curvature="0" />
    </g>
  </g>
  <g
     inkscape:groupmode="layer"
     id="layer2"
     inkscape:label="Capa 2">
    <flowRoot
       xml:space="preserve"
       id="flowRoot3877"
       style="font-style:normal;font-weight:normal;font-size:40px;line-height:1.25;font-family:sans-serif;letter-spacing:0px;word-spacing:0px;fill:#000000;fill-opacity:1;stroke:none"><flowRegion
         id="flowRegion3879"><rect
           id="rect3881"
           width="594.28571"
           height="161.42857"
           x="197.14285"
           y="625.37683" /></flowRegion><flowPara
         id="flowPara3883"></flowPara></flowRoot>  </g>
</svg>
